<!DOCTYPE svg PUBLIC "-//W3C//DTD SVG 1.1//EN" "http://www.w3.org/Graphics/SVG/1.1/DTD/svg11.dtd">
<!-- Uploaded to: SVG Repo, www.svgrepo.com, Transformed by: SVG Repo Mixer Tools -->
<svg fill="#d5c3c3" width="800px" height="800px" viewBox="0 0 24 24" xmlns="http://www.w3.org/2000/svg" stroke="#d5c3c3">
<g id="SVGRepo_bgCarrier" stroke-width="0"/>
<g id="SVGRepo_tracerCarrier" stroke-linecap="round" stroke-linejoin="round"/>
<g id="SVGRepo_iconCarrier"> <g data-name="Layer 2"> <g data-name="arrowhead-up"> <rect width="24" height="24" transform="rotate(180 12 12)" opacity="0"/> <path d="M6.63 11.61L12 7.29l5.37 4.48A1 1 0 0 0 18 12a1 1 0 0 0 .77-.36 1 1 0 0 0-.13-1.41l-6-5a1 1 0 0 0-1.27 0l-6 4.83a1 1 0 0 0-.15 1.41 1 1 0 0 0 1.41.14z"/> <path d="M12.64 12.23a1 1 0 0 0-1.27 0l-6 4.83a1 1 0 0 0-.15 1.41 1 1 0 0 0 1.41.15L12 14.29l5.37 4.48A1 1 0 0 0 18 19a1 1 0 0 0 .77-.36 1 1 0 0 0-.13-1.41z"/> </g> </g> </g>
</svg>